<svg width="103" height="99" viewBox="0 0 103 99" fill="none" xmlns="http://www.w3.org/2000/svg">
<path d="M83.5945 98.2012H14.9398C11.038 98.2012 7.29598 96.6525 4.53699 93.8957C1.77801 91.1389 0.228027 87.3999 0.228027 83.5012V5.10123C0.228027 3.80167 0.744687 2.55534 1.66435 1.63641C2.58401 0.717481 3.83134 0.201233 5.13194 0.201233H73.7866C75.0872 0.201233 76.3346 0.717481 77.2542 1.63641C78.1739 2.55534 78.6906 3.80167 78.6906 5.10123V63.9012H98.3062V83.5012C98.3062 87.3999 96.7562 91.1389 93.9972 93.8957C91.2382 96.6525 87.4963 98.2012 83.5945 98.2012ZM78.6906 73.7012V83.5012C78.6906 84.8008 79.2072 86.0471 80.1269 86.9661C81.0465 87.885 82.2939 88.4012 83.5945 88.4012C84.8951 88.4012 86.1424 87.885 87.062 86.9661C87.9817 86.0471 88.4984 84.8008 88.4984 83.5012V73.7012H78.6906ZM68.8827 88.4012V10.0012H10.0358V83.5012C10.0358 84.8008 10.5525 86.0471 11.4722 86.9661C12.3918 87.885 13.6392 88.4012 14.9398 88.4012H68.8827ZM19.8437 24.7012H59.0749V34.5012H19.8437V24.7012ZM19.8437 44.3012H59.0749V54.1012H19.8437V44.3012ZM19.8437 63.9012H44.3632V73.7012H19.8437V63.9012Z" fill="#152C60"/>
<path d="M102.341 33.1237C101.512 30.0472 99.9769 27.2465 97.879 24.9807C95.7811 22.715 93.1878 21.0574 90.3393 20.1616C89.5629 19.9451 88.7484 19.9451 87.972 20.1616C87.1912 20.4064 86.4819 20.8642 85.9125 21.491L80.6336 27.2179L58.0502 51.5825C57.3391 52.382 56.8758 53.4006 56.7246 54.4971L55.2806 65.1326C55.1693 65.9286 55.2259 66.7413 55.4463 67.5103C55.6877 68.2773 56.0854 68.9753 56.6062 69.5556C57.1365 70.1232 57.7756 70.5578 58.4763 70.8339C58.9663 71.0078 59.4777 71.0921 59.9914 71.0896H60.6779L70.5255 69.53C71.5536 69.3875 72.51 68.8845 73.2479 68.0983L95.8549 43.6825L101.11 38.0324C101.702 37.4067 102.132 36.624 102.357 35.7625C102.581 34.9011 102.592 33.9911 102.388 33.1237H102.341ZM98.885 34.7343C98.8205 34.9492 98.7065 35.1428 98.5535 35.2968L94.5529 39.6175L84.3265 28.5984L88.3745 24.2266C88.5299 24.0721 88.7162 23.9584 88.9189 23.8942H89.4634C91.7045 24.6142 93.7441 25.9264 95.3974 27.712C97.0507 29.4976 98.2657 31.7003 98.9323 34.1208C98.9572 34.3266 98.941 34.5358 98.885 34.7343Z" fill="#152C60"/>
</svg>
