<svg width="36" height="32" viewBox="0 0 36 32" fill="none" xmlns="http://www.w3.org/2000/svg">
<path d="M34.5857 10.944C33.6822 8.81484 32.3722 6.88043 30.7286 5.248C29.0889 3.61163 27.1458 2.30754 25.0071 1.408C22.7853 0.472 20.4308 0 18 0C15.5692 0 13.2147 0.472 10.9929 1.408C8.85419 2.30754 6.91114 3.61163 5.27143 5.248C3.62776 6.88043 2.31784 8.81484 1.41429 10.944C0.474107 13.156 0 15.5 0 17.92C0 23.228 2.34241 28.228 6.42455 31.644L6.49286 31.7C6.72589 31.892 7.0192 32 7.32054 32H28.6835C28.9848 32 29.2781 31.892 29.5112 31.7L29.5795 31.644C33.6576 28.228 36 23.228 36 17.92C36 15.5 35.5219 13.156 34.5857 10.944ZM28.0205 28.96H7.97946C6.42695 27.5664 5.18612 25.8633 4.3375 23.9614C3.48889 22.0595 3.05145 20.0011 3.05357 17.92C3.05357 13.944 4.60848 10.208 7.43304 7.4C10.2576 4.588 14.0103 3.04 18 3.04C21.9937 3.04 25.7464 4.588 28.567 7.4C31.3915 10.212 32.9464 13.948 32.9464 17.92C32.9464 22.144 31.1585 26.14 28.0205 28.96ZM22.4799 12.38C22.4195 12.3204 22.3379 12.287 22.2529 12.287C22.1679 12.287 22.0863 12.3204 22.0259 12.38L18.6308 15.76C17.8795 15.56 17.0478 15.752 16.4571 16.34C16.2479 16.5479 16.082 16.7948 15.9687 17.0666C15.8555 17.3384 15.7972 17.6297 15.7972 17.924C15.7972 18.2183 15.8555 18.5096 15.9687 18.7814C16.082 19.0532 16.2479 19.3001 16.4571 19.508C16.6659 19.7163 16.9139 19.8815 17.187 19.9942C17.46 20.107 17.7526 20.165 18.0482 20.165C18.3438 20.165 18.6364 20.107 18.9095 19.9942C19.1825 19.8815 19.4305 19.7163 19.6393 19.508C19.9191 19.2303 20.1203 18.8839 20.2226 18.5039C20.3249 18.124 20.3247 17.7238 20.2219 17.344L23.617 13.964C23.7415 13.84 23.7415 13.636 23.617 13.512L22.4799 12.38ZM17.1161 8.32H18.8839C19.0607 8.32 19.2054 8.176 19.2054 8V4.8C19.2054 4.624 19.0607 4.48 18.8839 4.48H17.1161C16.9393 4.48 16.7946 4.624 16.7946 4.8V8C16.7946 8.176 16.9393 8.32 17.1161 8.32ZM27.5625 17.04V18.8C27.5625 18.976 27.7071 19.12 27.8839 19.12H31.0982C31.275 19.12 31.4196 18.976 31.4196 18.8V17.04C31.4196 16.864 31.275 16.72 31.0982 16.72H27.8839C27.7071 16.72 27.5625 16.864 27.5625 17.04ZM28.0728 9.152L26.8232 7.908C26.7628 7.84845 26.6812 7.81504 26.5962 7.81504C26.5112 7.81504 26.4296 7.84845 26.3692 7.908L24.0951 10.172C24.0353 10.2321 24.0017 10.3134 24.0017 10.398C24.0017 10.4826 24.0353 10.5639 24.0951 10.624L25.3446 11.868C25.4692 11.992 25.6741 11.992 25.7987 11.868L28.0728 9.604C28.1973 9.48 28.1973 9.276 28.0728 9.152ZM9.64687 7.908C9.58646 7.84845 9.50488 7.81504 9.41987 7.81504C9.33485 7.81504 9.25327 7.84845 9.19286 7.908L7.9433 9.152C7.88348 9.21214 7.84993 9.29336 7.84993 9.378C7.84993 9.46264 7.88348 9.54386 7.9433 9.604L10.2174 11.868C10.342 11.992 10.5469 11.992 10.6714 11.868L11.921 10.624C12.0455 10.5 12.0455 10.296 11.921 10.172L9.64687 7.908ZM7.95536 16.72H4.74107C4.56429 16.72 4.41964 16.864 4.41964 17.04V18.8C4.41964 18.976 4.56429 19.12 4.74107 19.12H7.95536C8.13214 19.12 8.27678 18.976 8.27678 18.8V17.04C8.27678 16.864 8.13214 16.72 7.95536 16.72Z" fill="#F5F5F5"/>
</svg>
