<svg width="87" height="95" viewBox="0 0 87 98" fill="none" xmlns="http://www.w3.org/2000/svg">
<path d="M7.90909 14C7.90909 12.1435 8.74237 10.363 10.2256 9.05025C11.7089 7.7375 13.7206 7 15.8182 7H71.1818C73.2794 7 75.2911 7.7375 76.7744 9.05025C78.2576 10.363 79.0909 12.1435 79.0909 14V77H7.90909V14ZM15.8182 91C13.7206 91 11.7089 90.2625 10.2256 88.9497C8.74237 87.637 7.90909 85.8565 7.90909 84H80.0795C81.915 84 83.6752 83.3547 84.973 82.206C86.2709 81.0574 87 79.4995 87 77.875V14C87 10.287 85.3334 6.72601 82.367 4.10051C79.4005 1.475 75.3771 0 71.1818 0H15.8182C11.6229 0 7.59952 1.475 4.63304 4.10051C1.66655 6.72601 0 10.287 0 14V84C0 87.713 1.66655 91.274 4.63304 93.8995C7.59952 96.525 11.6229 98 15.8182 98H83.0455C84.0943 98 85.1001 97.6313 85.8417 96.9749C86.5834 96.3185 87 95.4283 87 94.5C87 93.5717 86.5834 92.6815 85.8417 92.0251C85.1001 91.3687 84.0943 91 83.0455 91H15.8182ZM22.7386 14C20.9032 14 19.143 14.6453 17.8451 15.794C16.5473 16.9426 15.8182 18.5005 15.8182 20.125V28.875C15.8182 32.256 18.9185 35 22.7386 35H64.2614C66.0968 35 67.857 34.3547 69.1549 33.206C70.4527 32.0574 71.1818 30.4995 71.1818 28.875V20.125C71.1818 18.5005 70.4527 16.9426 69.1549 15.794C67.857 14.6453 66.0968 14 64.2614 14H22.7386ZM23.7273 28V21H63.2727V28H23.7273Z" fill="#4B658B"/>
</svg>
