<svg width="107" height="108" viewBox="0 0 107 108" fill="none" xmlns="http://www.w3.org/2000/svg">
<path fill-rule="evenodd" clip-rule="evenodd" d="M61.2569 23.7599C61.2569 29.7994 58.8577 35.5916 54.5871 39.8622C50.3165 44.1328 44.5243 46.532 38.4848 46.532C32.4452 46.532 26.6531 44.1328 22.3825 39.8622C18.1119 35.5916 15.7127 29.7994 15.7127 23.7599C15.7127 17.7204 18.1119 11.9282 22.3825 7.65759C26.6531 3.38699 32.4452 0.987793 38.4848 0.987793C44.5243 0.987793 50.3165 3.38699 54.5871 7.65759C58.8577 11.9282 61.2569 17.7204 61.2569 23.7599ZM82.1313 57.9181C83.6412 57.9181 85.0892 58.5179 86.1569 59.5855C87.2245 60.6532 87.8243 62.1012 87.8243 63.6111V76.8948H101.108C102.618 76.8948 104.066 77.4946 105.134 78.5623C106.201 79.6299 106.801 81.078 106.801 82.5879C106.801 84.0977 106.201 85.5458 105.134 86.6134C104.066 87.6811 102.618 88.2809 101.108 88.2809H87.8243V101.565C87.8243 103.074 87.2245 104.523 86.1569 105.59C85.0892 106.658 83.6412 107.258 82.1313 107.258C80.6214 107.258 79.1734 106.658 78.1057 105.59C77.0381 104.523 76.4383 103.074 76.4383 101.565V88.2809H63.1545C61.6447 88.2809 60.1966 87.6811 59.129 86.6134C58.0613 85.5458 57.4615 84.0977 57.4615 82.5879C57.4615 81.078 58.0613 79.6299 59.129 78.5623C60.1966 77.4946 61.6447 76.8948 63.1545 76.8948H76.4383V63.6111C76.4383 62.1012 77.0381 60.6532 78.1057 59.5855C79.1734 58.5179 80.6214 57.9181 82.1313 57.9181ZM38.4848 54.1227C49.8177 54.1227 59.9968 59.0946 66.9499 66.9738V67.4064H63.1545C59.7878 67.4035 56.5155 68.5198 53.8525 70.5798C51.1894 72.6398 49.2867 75.5265 48.4436 78.786C47.6004 82.0456 47.8647 85.4929 49.1949 88.5858C50.5251 91.6787 52.8456 94.2416 55.7916 95.8716H4.3266C3.32001 95.8716 2.35465 95.4717 1.64288 94.76C0.931116 94.0482 0.53125 93.0828 0.53125 92.0762C0.53125 82.0103 4.52991 72.3567 11.6476 65.239C18.7652 58.1214 28.4189 54.1227 38.4848 54.1227Z" fill="#97A8C0"/>
</svg>
